<?xml version="1.0" encoding="utf-8"?>
<!-- Generator: Adobe Illustrator 23.0.4, SVG Export Plug-In . SVG Version: 6.00 Build 0)  -->
<svg version="1.1" id="Warstwa_1" xmlns="http://www.w3.org/2000/svg" xmlns:xlink="http://www.w3.org/1999/xlink" x="0px" y="0px"
	 viewBox="0 0 54 54" style="enable-background:new 0 0 54 54;" xml:space="preserve">
<style type="text/css">
	.st0{fill:none;stroke:#0052A5;stroke-width:1.68;stroke-linecap:round;stroke-linejoin:round;}
	.st1{fill:none;stroke:#0052A5;stroke-width:0.84;}
</style>
<g id="Robotix">
	<g id="dowod">
		<path id="Path-52" class="st0" d="M20.3,13.6h26.1"/>
		<path id="Path-53" class="st0" d="M27,20.6h19.4"/>
		<path id="Path-53_1_" class="st0" d="M27,27.6h19.4"/>
		<path id="Path-54" class="st0" d="M27,34.6h6.7"/>
		<path id="Path-55" class="st0" d="M6,19.5h15.1v15.1H6V19.5z"/>
		<circle class="st1" cx="13.6" cy="26.2" r="2.9"/>
		<path id="Path-4" class="st1" d="M8.9,33.8c0-2,1.6-2.9,4.6-2.9s4.6,1,4.6,2.9v0.4H8.9V33.8z"/>
	</g>
</g>
<g>
	<path class="st0" d="M52.3,36.7c0,1.7-1.3,3-3,3H4.2c-1.7,0-3-1.3-3-3v-26c0-1.6,1.4-3,3-3h45.1c1.7,0,3,1.4,3,3V36.7z"/>
</g>
</svg>
