<?xml version="1.0" encoding="utf-8"?>
<!-- Generator: Adobe Illustrator 23.0.4, SVG Export Plug-In . SVG Version: 6.00 Build 0)  -->
<svg version="1.1" id="Warstwa_3" xmlns="http://www.w3.org/2000/svg" xmlns:xlink="http://www.w3.org/1999/xlink" x="0px" y="0px"
	 viewBox="0 0 54 54" style="enable-background:new 0 0 54 54;" xml:space="preserve">
<style type="text/css">
	.st0{fill:none;stroke:#0052A5;stroke-width:1.68;stroke-linecap:round;stroke-linejoin:round;}
</style>
<g id="Robotix">
	<g id="historia-pojazdu">
		<g transform="translate(2.520000, 14.280000)">
			<ellipse id="Oval-4" class="st0" cx="38.4" cy="17.8" rx="5.8" ry="5.3"/>
			<ellipse class="st0" cx="9.1" cy="17.8" rx="5.8" ry="5.3"/>
			<path id="Path-83" class="st0" d="M44.6,19.5h5.3l-0.3-8c-0.1-1.9-1.7-3.4-3.6-3.4h-6.3l-3.2-9.2c-0.4-1.5-1.8-2.4-3.3-2.4H10.3
				c-1.5,0-2.9,1-3.4,2.4L3.7,8.1H2.4c-2,0-3.6,1.6-3.6,3.6v7c2.6,0,4.1,0,4.3,0"/>
			<path id="Path-84" class="st0" d="M32.6,18.7H14.8"/>
			<path id="Path-86" class="st0" d="M3.3,8h36.4"/>
			<path id="Path-87" class="st0" d="M21.1-3.1v21.8"/>
		</g>
	</g>
</g>
</svg>
