<?xml version="1.0" encoding="utf-8"?>
<!-- Generator: Adobe Illustrator 23.0.4, SVG Export Plug-In . SVG Version: 6.00 Build 0)  -->
<svg version="1.1" id="Warstwa_3" xmlns="http://www.w3.org/2000/svg" xmlns:xlink="http://www.w3.org/1999/xlink" x="0px" y="0px"
	 viewBox="0 0 54 54" style="enable-background:new 0 0 54 54;" xml:space="preserve">
<style type="text/css">
	.st0{fill:none;stroke:#0052A5;stroke-width:1.68;stroke-linecap:round;stroke-linejoin:round;}
</style>
<line class="st0" x1="24.4" y1="11.4" x2="24.4" y2="52.3"/>
<polyline class="st0" points="18.8,17.3 24.4,22.3 30.1,17.3 "/>
<polyline class="st0" points="18.8,28 24.4,33 30.1,28 "/>
<path class="st0" d="M37.7,10.6c-2-5.2-6.9-8.8-12.8-8.9c0,0-0.1,0-0.1,0c-2,0-3.9,0.4-5.7,1.3c0,0-6.8,2.7-7.9,13.1
	c-7.3,2.3-11.3,10.1-9,17.4c1.8,5.7,7.1,9.6,13.1,9.6c3.3,0,6.5-1.2,8.9-3.4c1.8,1.6,4.1,2.7,6.5,3.2"/>
<g>
	<polygon class="st0" points="34.1,52 49.4,52 49.4,23.4 52.2,23.4 34.1,13.5 	"/>
	
		<rect x="39.5" y="27.6" transform="matrix(-1 -6.516933e-11 6.516933e-11 -1 84.2733 62.8707)" class="st0" width="5.2" height="7.6"/>
	<path class="st0" d="M43.4,35.3"/>
	<path class="st0" d="M43.4,27.6"/>
	<polyline class="st0" points="44.8,51.9 44.8,40.2 39.5,40.2 39.5,51.9 	"/>
	<path class="st0" d="M43.4,51.9"/>
	<path class="st0" d="M43.4,40.2"/>
</g>
<line class="st0" x1="52" y1="23.3" x2="34.3" y2="23.3"/>
<path class="st0" d="M34.3,21.8"/>
<path class="st0" d="M47.3,21.8"/>
<path class="st0" d="M34.3,19.4"/>
<path class="st0" d="M43,19.4"/>
<path class="st0" d="M38.6,16.9"/>
</svg>
