<?xml version="1.0" encoding="utf-8"?>
<!-- Generator: Adobe Illustrator 23.0.4, SVG Export Plug-In . SVG Version: 6.00 Build 0)  -->
<svg version="1.1" id="Warstwa_2" xmlns="http://www.w3.org/2000/svg" xmlns:xlink="http://www.w3.org/1999/xlink" x="0px" y="0px"
	 viewBox="0 0 54 54" style="enable-background:new 0 0 54 54;" xml:space="preserve">
<style type="text/css">
	.st0{fill:none;stroke:#0052A5;stroke-width:1.68;stroke-linecap:round;stroke-linejoin:round;}
	.st1{fill:#0052A5;}
</style>
<g transform="translate(4.200000, 0.840000)">
	<polyline id="Path-12_2_" class="st0" points="3.8,45.8 0.5,45.8 0.5,0.8 19.6,0.8 	"/>
	<polyline id="Path-12_3_" class="st0" points="9.7,48.5 6.4,48.5 6.4,3.6 25.5,3.6 	"/>
	<polygon id="Path-12_1_" class="st0" points="12.4,51.5 12.4,6.6 31.5,6.6 44.8,19.1 44.8,51.3 	"/>
	<polyline id="Path-13_4_" class="st0" points="44.8,19.1 31.5,19.1 31.5,6.6 	"/>
	<path class="st1" d="M23.8,39.2c0,1-0.3,1.8-1,2.3c-0.6,0.5-1.5,0.8-2.7,0.8h-0.9v3.4h-2v-9.5h3c1.2,0,2,0.2,2.6,0.7
		C23.5,37.5,23.8,38.2,23.8,39.2z M19.3,40.7h0.7c0.6,0,1.1-0.1,1.4-0.4s0.5-0.6,0.5-1.1c0-0.5-0.1-0.8-0.4-1
		c-0.3-0.2-0.7-0.3-1.2-0.3h-0.9V40.7z"/>
	<path class="st1" d="M25.6,45.8v-9.5h2v9.5H25.6z"/>
	<path class="st1" d="M33.7,45.8h-2v-7.8h-2.6v-1.7h7.2v1.7h-2.6V45.8z"/>
	<path id="Path-28_1_" class="st0" d="M18.2,25.7h19.9"/>
	<path id="Path-29_1_" class="st0" d="M18.2,19.1h6.6"/>
</g>
</svg>
