<?xml version="1.0" encoding="utf-8"?>
<!-- Generator: Adobe Illustrator 23.0.4, SVG Export Plug-In . SVG Version: 6.00 Build 0)  -->
<svg version="1.1" id="Warstwa_1" xmlns="http://www.w3.org/2000/svg" xmlns:xlink="http://www.w3.org/1999/xlink" x="0px" y="0px"
	 viewBox="0 0 54 54" style="enable-background:new 0 0 54 54;" xml:space="preserve">
<style type="text/css">
	.st0{fill:none;stroke:#0052A5;stroke-width:1.68;stroke-miterlimit:10;}
</style>
<g>
	<path class="st0" d="M21.9,37.2L21.9,37.2c-1.6,2.8-0.7,6.3,2.1,7.9l0.7,0.4c2.8,1.6,6.3,0.7,7.9-2.1l0,0c1.6-2.8,0.7-6.3-2.1-7.9
		l-3.4-2.1l-5.4-3.2c-2.5-1.4-3.4-4.7-2-7.2l0,0c0,0,0.8-1.2,1.1-1.6"/>
	<path class="st0" d="M32.3,16.6L32.3,16.6c1.6-2.8,0.7-6.3-2.1-7.9l-0.7-0.4c-2.8-1.6-6.3-0.7-7.9,2.1l0,0
		c-1.6,2.8-0.7,6.3,2.1,7.9l3.4,2.1l5.4,3.2c2.5,1.4,3.4,4.7,2,7.2l0,0c0,0-0.8,1.2-1.1,1.6"/>
</g>
<circle class="st0" cx="27.1" cy="26.9" r="25.5"/>
</svg>
