<?xml version="1.0" encoding="utf-8"?>
<!-- Generator: Adobe Illustrator 23.0.4, SVG Export Plug-In . SVG Version: 6.00 Build 0)  -->
<svg version="1.1" xmlns="http://www.w3.org/2000/svg" xmlns:xlink="http://www.w3.org/1999/xlink" x="0px" y="0px"
	 viewBox="0 0 54 54" style="enable-background:new 0 0 54 54;" xml:space="preserve">
<style type="text/css">
	.st0{display:none;}
	.st1{display:inline;}
	.st2{fill:none;stroke:#0075E2;stroke-width:1.68;}
	.st3{display:none;fill:none;stroke:#0052A5;stroke-miterlimit:10;}
	.st4{fill:none;stroke:#0052A5;stroke-width:1.68;stroke-miterlimit:10;}
</style>
<g id="Warstwa_1" class="st0">
	<title>mapa-inwestycji-ikonki</title>
	<g id="Robotix" class="st1">
		<g id="Ludzie">
			<circle id="Oval-Copy" class="st2" cx="37.1" cy="16.9" r="9.2"/>
			<g id="Group-9">
				<circle id="Oval" class="st2" cx="16.9" cy="25.3" r="9.2"/>
				<path id="Path-4" class="st2" d="M1,45.5c0-7.3,5.5-10.9,16-10.9s16,3.7,16,10.9v0.8H1V45.5z"/>
			</g>
			<path id="z" class="st2" d="M27.2,36.9l0.5-0.5c2.5-2,5-2.7,9.4-2.7c10.5,0,16,4,16,11.8v0.8H32.4"/>
		</g>
	</g>
</g>
<g id="Warstwa_2">
	<path class="st3" d="M27,37.5C27,33.3,22,27,15.8,27S4.7,33.3,4.7,37.5"/>
	<circle class="st4" cx="16.5" cy="13.5" r="8.4"/>
	<path class="st4" d="M33.7,28.6c1.8-1.2,3.9-2,6.2-2c6.5,0,10.5,4.6,11.5,10.6c0.8,4.7,0.8,7.8,0.8,7.8L1.8,45.4c0,0,0-4.4,0.3-8.4
		c0.9-10.3,6.7-15,14.2-15c3.5,0,6.6,1.6,9.1,3.9"/>
	<circle class="st4" cx="40" cy="19.3" r="7.3"/>
	<path class="st4" d="M37.4,45.4c0-5.4-3.9-9.8-8.7-9.8S20,40,20,45.4"/>
	<circle class="st4" cx="28.8" cy="30.2" r="5.4"/>
</g>
</svg>
