<?xml version="1.0" encoding="utf-8"?>
<!-- Generator: Adobe Illustrator 23.0.4, SVG Export Plug-In . SVG Version: 6.00 Build 0)  -->
<svg version="1.1" id="Warstwa_1" xmlns="http://www.w3.org/2000/svg" xmlns:xlink="http://www.w3.org/1999/xlink" x="0px" y="0px"
	 viewBox="0 0 54 54" style="enable-background:new 0 0 54 54;" xml:space="preserve">
<style type="text/css">
	.st0{fill:none;stroke:#0052A5;stroke-width:1.68;}
	.st1{fill:#FFFFFF;stroke:#0052A5;stroke-width:1.68;stroke-linecap:round;stroke-linejoin:round;}
	.st2{fill:#0052A5;}
</style>
<g id="Współpraca--międzynarodowa">
	<g id="Group-11" transform="translate(6.720000, 6.720000)">
		<circle id="Oval-12" class="st0" cx="18.1" cy="22.4" r="23.1"/>
		<path id="Path-107" class="st0" d="M18.1-0.7v46.2"/>
		<path id="Path-107_1_" class="st0" d="M18.1-0.7C10.4,4.4,6.5,12.2,6.5,22.4s3.9,18,11.6,23.1"/>
		<path id="Path-107_2_" class="st0" d="M18.1-0.7c7.7,5.1,11.6,12.9,11.6,23.1s-3.9,18-11.6,23.1"/>
		<path id="Path-107_3_" class="st0" d="M1.3,6c4.5,3.2,10.1,4.9,16.7,4.9s11.9-1.5,16.4-4.7"/>
		<path id="Path-107_4_" class="st0" d="M34.6,38.7C30.1,35.6,24.6,34,18,34S5.9,35.5,1.3,38.9"/>
		<path id="Path-107_5_" class="st0" d="M41.1,22.4H-5.1"/>
	</g>
</g>
<circle class="st1" cx="40.7" cy="13.3" r="11.4"/>
<g>
	<path class="st2" d="M44,20.9C44,20.9,44,20.9,44,20.9l1.3-1c0,0,0,0,0,0l-1.5-8.2c0,0,0,0,0,0c0,0,0.4-0.4,2.3-2.3
		c1.7-1.7,1.1-2.7,1.1-2.7c0,0,0,0,0,0c0,0,0,0,0,0s0,0,0,0c0,0,0,0,0,0c0,0,0,0,0,0c0,0-1-0.7-2.7,1.1c-1.9,1.9-2.3,2.3-2.3,2.3
		c0,0,0,0,0,0l-8.2-1.5c0,0,0,0,0,0l-1,1.3c0,0,0,0,0,0L39,13c0,0,0,0,0,0l-2.9,3.2c0,0,0,0,0,0L34,15.7c0,0,0,0,0,0l-0.6,1
		c0,0,0,0,0,0l2.2,1.6c0,0,0,0,0,0l1.6,2.2c0,0,0,0,0,0l1-0.6c0,0,0,0,0,0l-0.6-2.1c0,0,0,0,0,0l3.2-2.9c0,0,0,0,0,0L44,20.9z"/>
</g>
</svg>
