<?xml version="1.0" encoding="utf-8"?>
<!-- Generator: Adobe Illustrator 23.0.4, SVG Export Plug-In . SVG Version: 6.00 Build 0)  -->
<svg version="1.1" id="Warstwa_1" xmlns="http://www.w3.org/2000/svg" xmlns:xlink="http://www.w3.org/1999/xlink" x="0px" y="0px"
	 viewBox="0 0 54 54" style="enable-background:new 0 0 54 54;" xml:space="preserve">
<style type="text/css">
	.st0{fill:none;stroke:#0052A5;stroke-width:1.68;stroke-linecap:round;stroke-linejoin:round;}
</style>
<polyline class="st0" points="40.6,40 40.6,52.8 3.3,52.8 3.3,1.3 25.7,1.3 40.6,15.3 40.6,28.2 "/>
<line class="st0" x1="9.6" y1="13.6" x2="19" y2="13.6"/>
<line class="st0" x1="9.6" y1="28.9" x2="26.4" y2="28.9"/>
<line class="st0" x1="9.6" y1="36.6" x2="26.4" y2="36.6"/>
<line class="st0" x1="9.6" y1="44.2" x2="26.4" y2="44.2"/>
<line class="st0" x1="9.6" y1="21.3" x2="31.8" y2="21.3"/>
<polygon class="st0" points="36.2,44.2 30.4,44.2 30.6,38.6 42.7,26.5 48.4,32.1 "/>
<path class="st0" d="M48.1,32.4l2-2c1.7-1.4,1.9-3.9,0.4-5.6c-1.4-1.7-3.9-1.9-5.6-0.4c-0.2,0.1-0.3,0.3-0.4,0.4l-2,2"/>
</svg>
