<?xml version="1.0" encoding="utf-8"?>
<!-- Generator: Adobe Illustrator 23.0.4, SVG Export Plug-In . SVG Version: 6.00 Build 0)  -->
<svg version="1.1" id="Warstwa_1" xmlns="http://www.w3.org/2000/svg" xmlns:xlink="http://www.w3.org/1999/xlink" x="0px" y="0px"
	 viewBox="0 0 54 54" style="enable-background:new 0 0 54 54;" xml:space="preserve">
<style type="text/css">
	.st0{fill:none;stroke:#0052A5;stroke-width:1.68;stroke-linecap:round;stroke-linejoin:round;}
	.st1{fill:none;stroke:#0052A5;stroke-width:1.68;stroke-linecap:round;}
</style>
<g id="Robotix">
	<g id="Zobacz-czy-przysługuje-Ci-ubezpieczenie-i-jak-sie-dobrowolnie-ubezpieczyć">
		<g id="Group">
			<path id="Shape" class="st0" d="M27,10.6c-0.5-0.8-1.1-1.5-1.8-2.2C19.8,2.9,11.1,2.9,5.6,8.2C5.5,8.3,5.5,8.3,5.4,8.4
				C0,13.9,0,22.7,5.4,28.2L27,49.8l21.6-21.6c5.5-5.5,5.5-14.3,0-19.8s-14.3-5.5-19.8,0C28.1,9.1,27.5,9.8,27,10.6z"/>
			<polyline id="Path-15" class="st1" points="3.8,25.4 13,25.4 16.6,16.1 20.1,32.5 23.5,22 25.9,29 28.2,25.4 41.1,25.4 
				50.4,25.4 			"/>
		</g>
	</g>
</g>
</svg>
