<?xml version="1.0" encoding="utf-8"?>
<!-- Generator: Adobe Illustrator 23.0.4, SVG Export Plug-In . SVG Version: 6.00 Build 0)  -->
<svg version="1.1" xmlns="http://www.w3.org/2000/svg" xmlns:xlink="http://www.w3.org/1999/xlink" x="0px" y="0px"
	 viewBox="0 0 54 54" style="enable-background:new 0 0 54 54;" xml:space="preserve">
<style type="text/css">
	.st0{fill:none;stroke:#0052A5;stroke-width:1.68;stroke-linecap:round;stroke-linejoin:round;}
</style>
<g id="Warstwa_1">
	<circle class="st0" cx="14.1" cy="26.1" r="5.1"/>
	<path class="st0" d="M18.9,34.6h-4.8h-2.7c-4.3,0-7.9,3.6-7.9,7.9v2.8h9.7"/>
	<circle class="st0" cx="39.9" cy="26.3" r="5.1"/>
	<path class="st0" d="M35.2,34.8h4.6h2.8c4.3,0,7.9,3.6,7.9,7.9v2.8h-9.7"/>
	<circle class="st0" cx="27.2" cy="32.2" r="5.1"/>
	<path class="st0" d="M29.9,40.8h-2.8h-2.8c-4.3,0-7.9,3.6-7.9,7.9v2.8h10.7h10.7v-2.8C37.8,44.4,34.4,40.8,29.9,40.8z"/>
	<polyline id="Path-42_1_" class="st0" points="23,20 25.6,17.4 37.5,17.4 37.5,1.9 17.8,1.9 17.8,11.8 	"/>
	<path id="Path-43" class="st0" d="M32.7,5.6H22"/>
	<path id="Path-43_1_" class="st0" d="M32.7,9.7H22"/>
	<path id="Path-43_2_" class="st0" d="M32.7,13.8H22"/>
</g>
<g id="Warstwa_2">
</g>
</svg>
