<?xml version="1.0" encoding="utf-8"?>
<!-- Generator: Adobe Illustrator 23.0.4, SVG Export Plug-In . SVG Version: 6.00 Build 0)  -->
<svg version="1.1" id="Warstwa_1" xmlns="http://www.w3.org/2000/svg" xmlns:xlink="http://www.w3.org/1999/xlink" x="0px" y="0px"
	 viewBox="0 0 54 54" style="enable-background:new 0 0 54 54;" xml:space="preserve">
<style type="text/css">
	.st0{fill:none;stroke:#0052A5;stroke-width:1.68;stroke-linecap:round;stroke-linejoin:round;}
	.st1{fill:#FFFFFF;stroke:#0052A5;stroke-width:1.68;stroke-linecap:round;stroke-linejoin:round;}
</style>
<path class="st0" d="M50.3,19.6c0-3.7-3-6.6-6.6-6.6l0,0c-0.1-3-2.6-5.4-5.6-5.4c-0.8,0-1.5,0.2-2.1,0.4c-1.4-2.7-4.3-4.6-7.6-4.6
	C24.3,3.4,21,6.2,20,10c-0.6-0.2-1.2-0.3-1.9-0.3c-2.7,0-5,1.6-6,4c-0.9-0.4-1.8-0.7-2.9-0.7c-3.7,0-6.6,3-6.6,6.6
	c0,3.5,2.8,6.4,6.2,6.6l0,0h35.4l0,0C47.6,25.9,50.3,23.1,50.3,19.6z"/>
<rect x="3.2" y="35.8" class="st0" width="16.6" height="10.3"/>
<line class="st0" x1="3" y1="48.8" x2="20.1" y2="48.8"/>
<line class="st0" x1="26.4" y1="26.2" x2="26.4" y2="41.5"/>
<line class="st0" x1="32.5" y1="42" x2="20.3" y2="42"/>
<rect x="33.2" y="35.8" class="st0" width="16.6" height="10.3"/>
<line class="st0" x1="32.9" y1="48.8" x2="50.1" y2="48.8"/>
<circle class="st1" cx="26.5" cy="41.6" r="2.2"/>
</svg>
