<?xml version="1.0" encoding="utf-8"?>
<!-- Generator: Adobe Illustrator 23.0.4, SVG Export Plug-In . SVG Version: 6.00 Build 0)  -->
<svg version="1.1" id="Warstwa_1" xmlns="http://www.w3.org/2000/svg" xmlns:xlink="http://www.w3.org/1999/xlink" x="0px" y="0px"
	 viewBox="0 0 54 54" style="enable-background:new 0 0 54 54;" xml:space="preserve">
<style type="text/css">
	.st0{fill:none;stroke:#0052A5;stroke-width:1.68;stroke-linejoin:round;stroke-miterlimit:10;}
	.st1{fill:#FFFFFF;}
	.st2{fill:none;stroke:#0052A5;stroke-width:1.68;stroke-linecap:round;stroke-linejoin:round;stroke-miterlimit:10;}
</style>
<g>
	<ellipse class="st0" cx="16.4" cy="9.4" rx="15" ry="4.4"/>
	<path class="st0" d="M31.4,35.4c0,2.4-6.8,4.4-15,4.4s-15-2-15-4.4"/>
	<path class="st0" d="M1.4,9.4v32.3c0,2.4,6.8,4.4,15,4.4s15-2,15-4.4V9.4"/>
	<path class="st0" d="M31.4,29c0,2.4-6.8,4.4-15,4.4s-15-2-15-4.4"/>
	<path class="st0" d="M31.4,22.6c0,2.4-6.8,4.4-15,4.4s-15-2-15-4.4"/>
	<path class="st0" d="M31.4,16c0,2.4-6.8,4.4-15,4.4s-15-2-15-4.4"/>
</g>
<path class="st1" d="M21.9,28.8c0,5.7,0,17.3,0,17.3l3.8,2.7c0,0,7.4,1.8,14.9,1.3c7.5-0.5,10.6-3.7,10.6-3.7l0.2-20.1
	c0,0-2.8-2.5-6.3-3s-8.2-1-8.2-1s-6.2,0.4-8.6,0.9c-2.4,0.7-5.5,1.8-5.8,2.4C21.9,26.2,21.9,28.8,21.9,28.8z"/>
<g>
	<path class="st0" d="M51.6,26.8c0,2.4-6.8,4.4-15,4.4s-15-2-15-4.4c0-2.2,6-4.2,13.7-4.4c0.4,0,0.9,0,1.3,0
		C45.1,22.4,51.6,24.4,51.6,26.8z"/>
	<path class="st2" d="M21.6,26.9v18.7c0,2.4,6.8,4.4,15,4.4s15-2,15-4.4V26.8"/>
	<path class="st2" d="M51.6,33c0,2.4-6.8,4.4-15,4.4s-15-2-15-4.4"/>
	<path class="st2" d="M51.6,39.2c0,2.4-6.8,4.4-15,4.4s-15-2-15-4.4"/>
</g>
</svg>
