<?xml version="1.0" encoding="utf-8"?>
<!-- Generator: Adobe Illustrator 23.0.4, SVG Export Plug-In . SVG Version: 6.00 Build 0)  -->
<svg version="1.1" id="Warstwa_1" xmlns="http://www.w3.org/2000/svg" xmlns:xlink="http://www.w3.org/1999/xlink" x="0px" y="0px"
	 viewBox="0 0 54 54" style="enable-background:new 0 0 54 54;" xml:space="preserve">
<style type="text/css">
	.st0{fill:none;stroke:#0052A5;stroke-width:1.68;stroke-linecap:round;stroke-linejoin:round;}
	.st1{fill-rule:evenodd;clip-rule:evenodd;fill:#0052A5;}
</style>
<polygon class="st0" points="18.2,26.6 16.1,21.8 2,21.8 2,26.6 2,43.5 2,51.6 41.1,51.6 41.1,26.6 "/>
<polyline class="st0" points="43.8,45.4 46.7,45.4 46.7,20.4 23.8,20.4 21.7,15.6 7.6,15.6 7.6,18.9 "/>
<polyline class="st0" points="49.6,39 52.4,39 52.4,14 29.5,14 27.4,9.2 13.4,9.2 13.4,12.5 "/>
<path class="st1" d="M15,38.8c0-0.3,0.1-0.6,0.3-0.8c0.4-0.3,1-0.3,1.4,0c0.2,0.2,0.3,0.5,0.3,0.8s-0.1,0.6-0.3,0.8
	c-0.2,0.2-0.4,0.3-0.7,0.3c-0.2,0-0.5-0.1-0.7-0.3C15,39.4,14.9,39.1,15,38.8z M20.5,38.8c0-0.3,0.1-0.6,0.3-0.8
	c0.4-0.3,1-0.3,1.4,0c0.2,0.2,0.3,0.5,0.3,0.8s-0.1,0.6-0.3,0.8c-0.2,0.2-0.4,0.3-0.7,0.3c-0.2,0-0.5-0.1-0.7-0.3
	C20.5,39.4,20.4,39.1,20.5,38.8z M26,38.8c0-0.3,0.1-0.6,0.3-0.8c0.4-0.3,1-0.3,1.4,0c0.2,0.2,0.3,0.5,0.3,0.8s-0.1,0.6-0.3,0.8
	c-0.2,0.2-0.4,0.3-0.7,0.3c-0.2,0-0.5-0.1-0.7-0.3C26,39.4,25.9,39.1,26,38.8z"/>
</svg>
