<?xml version="1.0" encoding="utf-8"?>
<!-- Generator: Adobe Illustrator 23.0.4, SVG Export Plug-In . SVG Version: 6.00 Build 0)  -->
<svg version="1.1" id="Warstwa_1" xmlns="http://www.w3.org/2000/svg" xmlns:xlink="http://www.w3.org/1999/xlink" x="0px" y="0px"
	 viewBox="0 0 54 54" style="enable-background:new 0 0 54 54;" xml:space="preserve">
<style type="text/css">
	.st0{fill:none;stroke:#0052A5;stroke-width:1.68;stroke-linecap:round;stroke-linejoin:round;}
</style>
<path class="st0" d="M26.5,32h25c0.5,0,1,0.4,1,1v9c0,0.5-0.4,1-1,1h-25c-0.5,0-1-0.4-1-1v-9C25.6,32.3,26,32,26.5,32z"/>
<path class="st0" d="M26.5,42.8v7.7c0,0.5,0.4,1,1,1h23.3c0.5,0,1-0.4,1-1v-7.7H26.5z"/>
<line class="st0" x1="37.5" y1="45.3" x2="40.6" y2="45.3"/>
<path class="st0" d="M39.1,27.4c-2.5,0-4.4,2-4.4,4.4h9C43.5,29.4,41.5,27.4,39.1,27.4z"/>
<ellipse id="Oval_2_" class="st0" cx="21.9" cy="13.1" rx="10.6" ry="10.7"/>
<path class="st0" d="M20.5,40.3H3.6c0,0-2-13.1,18.5-13c2.5,0,4.7,0.2,6.5,0.6"/>
</svg>
