<?xml version="1.0" encoding="utf-8"?>
<!-- Generator: Adobe Illustrator 23.0.4, SVG Export Plug-In . SVG Version: 6.00 Build 0)  -->
<svg version="1.1" id="Warstwa_1" xmlns="http://www.w3.org/2000/svg" xmlns:xlink="http://www.w3.org/1999/xlink" x="0px" y="0px"
	 viewBox="0 0 54 54" style="enable-background:new 0 0 54 54;" xml:space="preserve">
<style type="text/css">
	.st0{fill:none;stroke:#0052A5;stroke-width:1.68;stroke-linecap:round;stroke-linejoin:round;}
</style>
<polygon class="st0" points="42,51.7 3.3,51.7 3.3,2.5 26.9,2.5 42,16.7 "/>
<line class="st0" x1="22.3" y1="27.1" x2="35.2" y2="27.1"/>
<line class="st0" x1="9.6" y1="35" x2="35.2" y2="35"/>
<line class="st0" x1="22.3" y1="11.2" x2="26.8" y2="11.2"/>
<line class="st0" x1="22.3" y1="19.1" x2="35.2" y2="19.1"/>
<line class="st0" x1="9.6" y1="43" x2="35.2" y2="43"/>
<g>
	<path class="st0" d="M11,24.7L11,24.7c-0.9,1.5-0.4,3.4,1.1,4.4l0.4,0.2c1.5,0.9,3.4,0.4,4.4-1.1l0,0c0.9-1.5,0.4-3.4-1.1-4.4
		l-1.8-1.2L11,20.8c-1.4-0.8-1.9-2.6-1.1-4l0,0c0,0,0.4-0.7,0.6-0.9"/>
	<path class="st0" d="M16.8,13.3L16.8,13.3c0.9-1.5,0.4-3.4-1.1-4.4l-0.4-0.2c-1.5-0.9-3.5-0.4-4.4,1.1l0,0
		c-0.9,1.5-0.4,3.4,1.1,4.4l1.9,1.1l2.9,1.7c1.4,0.8,1.9,2.6,1.1,4l0,0c0,0-0.4,0.7-0.6,0.9"/>
</g>
</svg>
