<?xml version="1.0" encoding="utf-8"?>
<!-- Generator: Adobe Illustrator 23.0.4, SVG Export Plug-In . SVG Version: 6.00 Build 0)  -->
<svg version="1.1" id="Warstwa_4" xmlns="http://www.w3.org/2000/svg" xmlns:xlink="http://www.w3.org/1999/xlink" x="0px" y="0px"
	 viewBox="0 0 54 54" style="enable-background:new 0 0 54 54;" xml:space="preserve">
<style type="text/css">
	.st0{fill:#0052A5;}
	.st1{fill:none;stroke:#0052A5;stroke-width:1.68;stroke-linecap:round;stroke-linejoin:round;}
</style>
<path id="_x20AC_" class="st0" d="M29.8,29.2H23c0,2.4,0.5,4,1.6,5.4c1.1,1.4,2.7,1.9,4.6,1.9c1.3,0,2.7-0.3,3.8-0.5l0.3,3
	c-1.3,0.3-3,0.5-4.3,0.5c-3,0-5.1-0.8-7-2.7c-1.9-1.9-2.7-4.3-2.7-7.3h-3v-2.2h3.2v-3h-3.2v-2.2h3.2c0-3.2,1.1-5.4,2.7-7.3
	s4-2.4,6.7-2.4c1.3,0,2.7,0.3,4.3,0.5L33,16c-1.3-0.5-2.7-0.5-3.8-0.5c-1.9,0-3.5,0.5-4.6,1.9C23.5,18.8,23,20,23,22.2h6.8v2.2H23
	v2.4h6.7V29.2z"/>
<circle id="Oval-Copy" class="st1" cx="27" cy="26.9" r="24.5"/>
</svg>
