<?xml version="1.0" encoding="utf-8"?>
<!-- Generator: Adobe Illustrator 23.0.4, SVG Export Plug-In . SVG Version: 6.00 Build 0)  -->
<svg version="1.1" id="Warstwa_1" xmlns="http://www.w3.org/2000/svg" xmlns:xlink="http://www.w3.org/1999/xlink" x="0px" y="0px"
	 viewBox="0 0 54 54" style="enable-background:new 0 0 54 54;" xml:space="preserve">
<style type="text/css">
	.st0{fill:none;stroke:#0052A5;stroke-width:1.68;stroke-linecap:round;stroke-linejoin:round;}
	.st1{fill:#0052A5;}
</style>
<g>
	<path class="st0" d="M27.4,52.8c12.8-3.8,22-14.9,22-28V7.9c-1.6,0.3-3.2,0.5-4.9,0.5C38,8.4,32,6.2,27.4,2.6c0,0-11,5.8-17.5,5.8
		C8.2,8.4,6.6,8.2,5,7.9v16.9c0,13.1,9.2,24.2,22,28H27.4z"/>
	<g>
		<path class="st1" d="M19.9,32h-9.2v-1.7l6-8.5h-5.8v-2.2h8.9v1.7l-5.9,8.5H20V32H19.9z"/>
		<path class="st1" d="M32.9,19.6v8c0,0.9-0.2,1.7-0.6,2.4c-0.4,0.7-1,1.2-1.8,1.6s-1.7,0.6-2.8,0.6c-1.6,0-2.8-0.4-3.7-1.2
			c-0.9-0.8-1.3-1.9-1.3-3.4v-8h2.6v7.6c0,1,0.2,1.7,0.6,2.1s1,0.7,1.9,0.7s1.5-0.2,1.9-0.7s0.6-1.2,0.6-2.1v-7.6H32.9z"/>
		<path class="st1" d="M44.1,28.6c0,1.1-0.4,2-1.2,2.7c-0.8,0.6-1.9,1-3.4,1c-1.3,0-2.5-0.2-3.5-0.7V29c0.8,0.4,1.5,0.6,2.1,0.8
			c0.6,0.2,1.1,0.2,1.6,0.2c0.6,0,1-0.1,1.3-0.3c0.3-0.2,0.5-0.5,0.5-1c0-0.2-0.1-0.5-0.2-0.6c-0.1-0.2-0.3-0.4-0.6-0.5
			c-0.3-0.2-0.8-0.5-1.6-0.8c-0.8-0.4-1.3-0.7-1.7-1s-0.7-0.7-0.9-1.1s-0.3-0.9-0.3-1.5c0-1.1,0.4-2,1.1-2.6
			c0.7-0.6,1.8-0.9,3.1-0.9c0.6,0,1.3,0.1,1.8,0.2c0.6,0.2,1.2,0.4,1.8,0.6l-0.8,2c-0.7-0.3-1.2-0.5-1.6-0.6
			c-0.4-0.1-0.9-0.2-1.3-0.2c-0.5,0-0.9,0.1-1.1,0.3c-0.3,0.2-0.4,0.5-0.4,0.9c0,0.2,0.1,0.4,0.2,0.6c0.1,0.2,0.3,0.3,0.5,0.5
			s0.8,0.5,1.7,0.9c1.2,0.6,2,1.1,2.4,1.7C43.9,27.1,44.1,27.7,44.1,28.6z"/>
	</g>
</g>
</svg>
