<?xml version="1.0" encoding="utf-8"?>
<!-- Generator: Adobe Illustrator 23.0.4, SVG Export Plug-In . SVG Version: 6.00 Build 0)  -->
<svg version="1.1" id="Warstwa_3" xmlns="http://www.w3.org/2000/svg" xmlns:xlink="http://www.w3.org/1999/xlink" x="0px" y="0px"
	 viewBox="0 0 54 54" style="enable-background:new 0 0 54 54;" xml:space="preserve">
<style type="text/css">
	.st0{fill:none;stroke:#0052A5;stroke-width:1.68;stroke-linecap:round;stroke-linejoin:round;}
</style>
<g>
	<path class="st0" d="M50.2,36.4c0,4-3.2,7.2-7.2,7.2c-1,0-1.9-0.2-2.7-0.6c-2.6-1.1-4.5-3.7-4.5-6.7c0-4,3.2-7.2,7.2-7.2
		S50.2,32.4,50.2,36.4z"/>
	<g>
		<polyline class="st0" points="47.2,42.4 47.2,51.9 43,49.4 38.7,52 38.7,42.5 		"/>
	</g>
</g>
<polyline class="st0" points="35.1,44.7 5,44.7 5,3.9 42.9,3.9 42.9,25.7 "/>
<line class="st0" x1="11.7" y1="12.7" x2="36.3" y2="12.7"/>
<line class="st0" x1="11.7" y1="20.7" x2="36.3" y2="20.7"/>
<line class="st0" x1="11.7" y1="28.7" x2="32.1" y2="28.7"/>
<line class="st0" x1="11.7" y1="36.6" x2="29" y2="36.6"/>
</svg>
