<?xml version="1.0" encoding="utf-8"?>
<!-- Generator: Adobe Illustrator 23.0.4, SVG Export Plug-In . SVG Version: 6.00 Build 0)  -->
<svg version="1.1" id="Warstwa_1" xmlns="http://www.w3.org/2000/svg" xmlns:xlink="http://www.w3.org/1999/xlink" x="0px" y="0px"
	 viewBox="0 0 54 54" style="enable-background:new 0 0 54 54;" xml:space="preserve">
<style type="text/css">
	.st0{fill:none;stroke:#0052A5;stroke-width:1.68;stroke-linecap:round;stroke-linejoin:round;}
	.st1{fill:#FFFFFF;stroke:#0052A5;stroke-width:1.68;stroke-linecap:round;stroke-linejoin:round;}
	.st2{fill:#0052A5;}
</style>
<g id="kalendarz">
	<g transform="translate(6.720000, 7.560000)">
		<polygon id="Path-74" class="st0" points="-3.8,35.2 36.6,35.2 36.6,1.5 -3.4,1.5 		"/>
		<path id="Path-76" class="st0" d="M-3.4,8.2h39.2"/>
		<path id="Path-77" class="st0" d="M2.9-2.7v8.4"/>
		<path class="st0" d="M29.9-2.7v8.4"/>
	</g>
</g>
<g id="Warstwa_4">
	<circle class="st1" cx="42.9" cy="42.5" r="9.3"/>
	<polyline class="st0" points="46.9,46 42.9,42.6 42.9,35.6 	"/>
	<circle class="st2" cx="8.2" cy="21.1" r="1.9"/>
	<circle class="st2" cx="13.3" cy="21.1" r="1.9"/>
	<circle class="st2" cx="18.3" cy="21.1" r="1.9"/>
	<circle class="st2" cx="23.4" cy="21.1" r="1.9"/>
	<circle class="st2" cx="28.5" cy="21.1" r="1.9"/>
	<circle class="st2" cx="33.6" cy="21.1" r="1.9"/>
	<circle class="st2" cx="38.6" cy="21.1" r="1.9"/>
	<circle class="st2" cx="8.2" cy="26.3" r="1.9"/>
	<circle class="st2" cx="13.3" cy="26.3" r="1.9"/>
	<circle class="st2" cx="18.3" cy="26.3" r="1.9"/>
	<circle class="st2" cx="23.4" cy="26.3" r="1.9"/>
	<circle class="st2" cx="28.5" cy="26.3" r="1.9"/>
	<circle class="st2" cx="33.6" cy="26.3" r="1.9"/>
	<circle class="st2" cx="38.6" cy="26.3" r="1.9"/>
	<circle class="st2" cx="8.2" cy="31.6" r="1.9"/>
	<circle class="st2" cx="13.3" cy="31.6" r="1.9"/>
	<circle class="st2" cx="18.3" cy="31.6" r="1.9"/>
	<circle class="st2" cx="23.4" cy="31.6" r="1.9"/>
	<circle class="st2" cx="28.5" cy="31.6" r="1.9"/>
	<circle class="st2" cx="33.6" cy="31.6" r="1.9"/>
	<circle class="st2" cx="8.2" cy="36.8" r="1.9"/>
	<circle class="st2" cx="13.3" cy="36.8" r="1.9"/>
	<circle class="st2" cx="18.3" cy="36.8" r="1.9"/>
	<circle class="st2" cx="23.4" cy="36.8" r="1.9"/>
	<circle class="st2" cx="28.5" cy="36.8" r="1.9"/>
</g>
</svg>
