<?xml version="1.0" encoding="utf-8"?>
<!-- Generator: Adobe Illustrator 23.0.4, SVG Export Plug-In . SVG Version: 6.00 Build 0)  -->
<svg version="1.1" id="Warstwa_1" xmlns="http://www.w3.org/2000/svg" xmlns:xlink="http://www.w3.org/1999/xlink" x="0px" y="0px"
	 viewBox="0 0 54 54" style="enable-background:new 0 0 54 54;" xml:space="preserve">
<style type="text/css">
	.st0{fill:none;stroke:#0052A5;stroke-width:1.68;stroke-linecap:round;stroke-linejoin:round;}
	.st1{fill:none;stroke:#0052A5;stroke-width:1.68;stroke-miterlimit:10;}
</style>
<title>mapa-inwestycji-ikonki</title>
<line class="st0" x1="42.2" y1="29.6" x2="52.7" y2="19.1"/>
<path class="st0" d="M19,23.1l-9,9c-1,0.8-1.1,2.3-0.3,3.3c0.1,0.1,0.2,0.2,0.3,0.3l0,0c0.8,1,2.3,1.1,3.3,0.3
	c0.1-0.1,0.2-0.2,0.3-0.3c-1,0.9-1.1,2.3-0.3,3.3c0.1,0.1,0.2,0.2,0.3,0.3c0.8,1,2.3,1.1,3.3,0.3c0.1-0.1,0.2-0.2,0.3-0.3
	c-1,0.9-1.1,2.3-0.3,3.3c0.1,0.1,0.2,0.2,0.3,0.3c1.1,0.8,2.8,1.1,3.6,0c-1,0.9-1.1,2.3-0.3,3.3c0.1,0.1,0.2,0.2,0.3,0.3l0,0
	c0.8,1,2.3,1.1,3.3,0.3c0.1-0.1,0.2-0.2,0.3-0.3L26,45"/>
<line class="st0" x1="34.7" y1="8.8" x2="36.9" y2="6.5"/>
<path class="st1" d="M40.9,36.2l-3.6-3.5c-1-0.9-1.1-2.3-0.3-3.3c0.1-0.1,0.2-0.2,0.3-0.3l0,0c0.9-1,2.3-1.1,3.3-0.3
	c0.1,0.1,0.2,0.2,0.3,0.3l3.5,3.5c1,0.9,1.1,2.3,0.3,3.3c-0.1,0.1-0.2,0.2-0.3,0.3l0,0c-0.7,1-2.1,1.1-3.1,0.4
	C41.2,36.4,41,36.3,40.9,36.2z"/>
<path class="st1" d="M37,39.9l-3.5-3.5c-1-0.8-1.1-2.3-0.3-3.3c0.1-0.1,0.2-0.2,0.3-0.3l0,0c0.8-1,2.3-1.1,3.3-0.3
	c0.1,0.1,0.2,0.2,0.3,0.3l3.5,3.5c1,0.9,1.1,2.3,0.3,3.3c-0.1,0.1-0.2,0.2-0.3,0.3l0,0C39.6,40.9,38.1,40.9,37,39.9z"/>
<path class="st1" d="M33.4,43.6L30,40.2c-1-0.8-1.1-2.3-0.3-3.3c0.1-0.1,0.2-0.2,0.3-0.3l0,0c0.8-1,2.3-1.1,3.3-0.3
	c0.1,0.1,0.2,0.2,0.3,0.3L37,40c1,0.8,1.1,2.3,0.3,3.3c-0.1,0.1-0.2,0.2-0.3,0.3l0,0c-0.9,1-2.4,1.1-3.4,0.2
	C33.6,43.8,33.5,43.7,33.4,43.6z"/>
<path class="st1" d="M29.7,47.2l-3.5-3.5c-1-0.8-1.1-2.3-0.3-3.3c0.1-0.1,0.2-0.2,0.3-0.3l0,0c0.8-1,2.3-1.1,3.3-0.3
	c0.1,0.1,0.2,0.2,0.3,0.3l3.5,3.5c1,0.8,1.1,2.3,0.3,3.3c-0.1,0.1-0.2,0.2-0.3,0.3l0,0c-0.9,1-2.3,1.1-3.3,0.3
	C29.9,47.4,29.8,47.3,29.7,47.2z"/>
<line class="st0" x1="12.1" y1="30.2" x2="1.3" y2="19.5"/>
<path class="st0" d="M14.7,5.9l4.2,4.2l12.3-0.3l8.9,8.9c0,0-4.3,5.1-9.8-1.3c-3.2-3.6-5.5,5.5-14,1.4"/>
</svg>
