<?xml version="1.0" encoding="utf-8"?>
<!-- Generator: Adobe Illustrator 23.0.4, SVG Export Plug-In . SVG Version: 6.00 Build 0)  -->
<svg version="1.1" id="Warstwa_3" xmlns="http://www.w3.org/2000/svg" xmlns:xlink="http://www.w3.org/1999/xlink" x="0px" y="0px"
	 viewBox="0 0 54 54" style="enable-background:new 0 0 54 54;" xml:space="preserve">
<style type="text/css">
	.st0{fill:none;stroke:#0052A5;stroke-width:1.68;stroke-linecap:round;stroke-linejoin:round;}
</style>
<line class="st0" x1="30.8" y1="7.9" x2="30.8" y2="51.2"/>
<polyline class="st0" points="3.1,6.7 40.6,2.8 40.6,6.9 3.3,6.9 "/>
<polygon class="st0" points="34.3,51.1 48.7,51.1 48.7,24.2 51.3,24.2 34.3,11.2 "/>
<rect x="39.4" y="28.2" class="st0" width="4.9" height="7.2"/>
<path class="st0" d="M43,35.4"/>
<path class="st0" d="M43,28.1"/>
<polyline class="st0" points="44.3,51 44.3,40 39.4,40 39.4,51 "/>
<path class="st0" d="M43,51"/>
<path class="st0" d="M43,40"/>
<line class="st0" x1="51.1" y1="24.1" x2="34.5" y2="24.1"/>
<path class="st0" d="M34.5,22.7"/>
<path class="st0" d="M46.7,22.7"/>
<path class="st0" d="M34.5,20.4"/>
<path class="st0" d="M42.6,20.4"/>
<path class="st0" d="M38.5,18.1"/>
<line class="st0" x1="25.1" y1="7.9" x2="25.1" y2="51.2"/>
<line class="st0" x1="25.4" y1="8.1" x2="30.7" y2="13.4"/>
<line class="st0" x1="30.6" y1="8.1" x2="25.3" y2="13.4"/>
<line class="st0" x1="30.6" y1="14.4" x2="25.3" y2="19.7"/>
<line class="st0" x1="30.6" y1="20.7" x2="25.3" y2="26"/>
<line class="st0" x1="30.6" y1="27" x2="25.3" y2="32.3"/>
<line class="st0" x1="30.6" y1="33.3" x2="25.3" y2="38.6"/>
<line class="st0" x1="30.6" y1="39.6" x2="25.3" y2="44.9"/>
<line class="st0" x1="30.6" y1="45.9" x2="25.3" y2="51.2"/>
<line class="st0" x1="25.4" y1="14.4" x2="30.7" y2="19.7"/>
<line class="st0" x1="25.4" y1="20.7" x2="30.7" y2="26"/>
<line class="st0" x1="25.4" y1="27" x2="30.7" y2="32.3"/>
<line class="st0" x1="25.4" y1="33.3" x2="30.7" y2="38.6"/>
<line class="st0" x1="25.4" y1="39.6" x2="30.7" y2="44.8"/>
<line class="st0" x1="25.4" y1="45.9" x2="30.7" y2="51.1"/>
<line class="st0" x1="10.6" y1="7.5" x2="10.6" y2="29.9"/>
<rect x="6" y="30.2" class="st0" width="9" height="14.6"/>
</svg>
