<?xml version="1.0" encoding="utf-8"?>
<!-- Generator: Adobe Illustrator 23.0.4, SVG Export Plug-In . SVG Version: 6.00 Build 0)  -->
<svg version="1.1" id="Warstwa_1" xmlns="http://www.w3.org/2000/svg" xmlns:xlink="http://www.w3.org/1999/xlink" x="0px" y="0px"
	 viewBox="0 0 54 54" style="enable-background:new 0 0 54 54;" xml:space="preserve">
<style type="text/css">
	.st0{fill:none;stroke:#0052A5;stroke-width:1.68;stroke-linecap:round;stroke-linejoin:round;}
	.st1{fill:none;stroke:#0052A5;stroke-width:0.84;}
</style>
<g id="dowod">
	<path id="Path-52" class="st0" d="M35.7,15.7h9"/>
	<path id="Path-53" class="st0" d="M35.7,21.8h9"/>
	<path id="Path-53_1_" class="st0" d="M35.7,27.9h9"/>
	<path id="Path-52_1_" class="st0" d="M18.2,34.8h26.5"/>
	<path id="Path-53_3_" class="st0" d="M18.2,40.9h26.5"/>
	<path id="Path-54" class="st0" d="M18.2,47.4h23.3"/>
	<path id="Path-55" class="st0" d="M18.4,15.5h13.1v13.1H18.4V15.5z"/>
	<circle class="st1" cx="25" cy="21.3" r="2.5"/>
	<path id="Path-4" class="st1" d="M20.9,27.9c0-1.7,1.4-2.5,4-2.5s4,0.9,4,2.5v0.3h-8V27.9z"/>
</g>
<g>
	<path class="st0" d="M49.9,49.6c0,1.5-1.1,2.6-2.6,2.6H16.8c-1.5,0-2.6-1.1-2.6-2.6V12.8c0-1.4,1.2-2.6,2.6-2.6h30.5
		c1.5,0,2.6,1.2,2.6,2.6V49.6z"/>
</g>
<g>
	<path class="st0" d="M9.1,45V8.3c0-1.4,1.2-2.6,2.6-2.6h30.5"/>
</g>
<g>
	<path class="st0" d="M4.3,40.9V4.2c0-1.4,1.2-2.6,2.6-2.6h30.5"/>
</g>
</svg>
