<?xml version="1.0" encoding="utf-8"?>
<!-- Generator: Adobe Illustrator 23.0.4, SVG Export Plug-In . SVG Version: 6.00 Build 0)  -->
<svg version="1.1" id="Warstwa_5" xmlns="http://www.w3.org/2000/svg" xmlns:xlink="http://www.w3.org/1999/xlink" x="0px" y="0px"
	 viewBox="0 0 54 54" style="enable-background:new 0 0 54 54;" xml:space="preserve">
<style type="text/css">
	.st0{fill:none;stroke:#0052A5;stroke-width:1.68;stroke-linecap:round;stroke-linejoin:round;}
</style>
<g>
	<ellipse id="Oval_2_" class="st0" cx="24.1" cy="13.2" rx="11.3" ry="11.4"/>
	<path class="st0" d="M22.6,42.2h-18c0,0-2.1-14,19.7-13.8c2.7,0,5,0.2,6.9,0.6"/>
</g>
<g>
	<path class="st0" d="M44.8,38.9c0,4.3-3.4,7.7-7.7,7.7c-1.1,0-2-0.2-2.9-0.6c-2.8-1.2-4.8-3.9-4.8-7.1c0-4.3,3.4-7.7,7.7-7.7
		S44.8,34.6,44.8,38.9z"/>
	<g>
		<polyline class="st0" points="44.7,41.5 49.3,46.1 45.2,47.2 44.1,51.4 39.5,46.8 		"/>
	</g>
	<g>
		<polyline class="st0" points="34.6,46.8 30,51.4 29,47.2 24.9,46.1 29.5,41.5 		"/>
	</g>
</g>
</svg>
