<?xml version="1.0" encoding="utf-8"?>
<!-- Generator: Adobe Illustrator 23.0.4, SVG Export Plug-In . SVG Version: 6.00 Build 0)  -->
<svg version="1.1" id="Warstwa_1" xmlns="http://www.w3.org/2000/svg" xmlns:xlink="http://www.w3.org/1999/xlink" x="0px" y="0px"
	 viewBox="0 0 54 54" style="enable-background:new 0 0 54 54;" xml:space="preserve">
<style type="text/css">
	.st0{fill:none;stroke:#0052A5;stroke-width:1.68;stroke-linecap:round;stroke-linejoin:round;}
</style>
<rect x="4.7" y="3.2" class="st0" width="44.1" height="47.4"/>
<rect x="19.6" y="28.8" class="st0" width="14.2" height="12.3"/>
<path class="st0" d="M22.2,28.7v-4.4c0-2.5,2-4.5,4.5-4.5h0c2.5,0,4.5,2,4.5,4.5v4.4"/>
<path class="st0" d="M24.4,27.8v-3.5c0-1.3,1-2.3,2.3-2.3h0c1.3,0,2.3,1,2.3,2.3v3.5"/>
<line class="st0" x1="26.7" y1="3.7" x2="26.7" y2="16.5"/>
<line class="st0" x1="25" y1="33.5" x2="28.4" y2="36.8"/>
<line class="st0" x1="28.4" y1="33.5" x2="25" y2="36.8"/>
<line class="st0" x1="26.7" y1="44" x2="26.7" y2="50.2"/>
</svg>
