<?xml version="1.0" encoding="utf-8"?>
<!-- Generator: Adobe Illustrator 23.0.4, SVG Export Plug-In . SVG Version: 6.00 Build 0)  -->
<svg version="1.1" id="Warstwa_1" xmlns="http://www.w3.org/2000/svg" xmlns:xlink="http://www.w3.org/1999/xlink" x="0px" y="0px"
	 viewBox="0 0 54 54" style="enable-background:new 0 0 54 54;" xml:space="preserve">
<style type="text/css">
	.st0{fill:none;stroke:#0052A5;stroke-width:1.68;stroke-linecap:round;stroke-linejoin:round;}
</style>
<g>
	<polygon class="st0" points="47.9,49.2 6,49.2 11.9,14.3 42.1,14.3 	"/>
	<path class="st0" d="M18.3,18.5v-6.9C18.3,6.9,22.2,3,27,3l0,0c4.8,0,8.6,3.9,8.6,8.6v6.9"/>
</g>
<g id="Group-11" transform="translate(6.720000, 6.720000)">
	<circle id="Oval-12" class="st0" cx="20.4" cy="25.9" r="10.4"/>
	<path id="Path-107" class="st0" d="M20.4,15.8V36"/>
	<path id="Path-107_1_" class="st0" d="M20.4,15.8c-3.4,2.2-5.1,5.7-5.1,10.1S17,33.8,20.4,36"/>
	<path id="Path-107_2_" class="st0" d="M20.4,15.8c3.4,2.2,5.1,5.7,5.1,10.1s-1.7,7.9-5.1,10.1"/>
	<path id="Path-107_3_" class="st0" d="M13,18.8c2,1.4,4.4,2.1,7.3,2.1s5.2-0.7,7.2-2.1"/>
	<path id="Path-107_4_" class="st0" d="M27.6,33.1c-2-1.4-4.4-2.1-7.3-2.1S15,31.7,13,33.1"/>
	<path id="Path-107_5_" class="st0" d="M30.5,25.9H10.2"/>
</g>
</svg>
