<?xml version="1.0" encoding="utf-8"?>
<!-- Generator: Adobe Illustrator 23.0.4, SVG Export Plug-In . SVG Version: 6.00 Build 0)  -->
<svg version="1.1" id="Warstwa_1" xmlns="http://www.w3.org/2000/svg" xmlns:xlink="http://www.w3.org/1999/xlink" x="0px" y="0px"
	 viewBox="0 0 54 54" style="enable-background:new 0 0 54 54;" xml:space="preserve">
<style type="text/css">
	.st0{fill:none;stroke:#0052A5;stroke-width:1.68;stroke-linecap:round;stroke-linejoin:round;}
	.st1{fill:#FFFFFF;}
</style>
<g id="Robotix_2_">
	<g id="Flaga_2_">
		<path class="st0" d="M8.9,42.4V11.2"/>
		<path id="Path-6-Copy_5_" class="st0" d="M31.7,10.3c2.6-0.5,5.1-1.8,7.1-3.6"/>
		<path id="Path-6-Copy_4_" class="st0" d="M8.9,11.2c3-3,6.3-4.5,9.7-4.5c1.1,0,2,0.2,2.7,0.5"/>
		<path id="Path-6-Copy-2_5_" class="st0" d="M38.8,10.2V6.7"/>
		<path id="Path-6-Copy-2_4_" class="st0" d="M8.9,30c1-1,1.8-1.7,2.8-2.3"/>
	</g>
</g>
<g id="Robotix_1_">
	<g id="Flaga_1_">
		<path class="st0" d="M13.9,45.4V14.2"/>
		<path id="Path-6-Copy_6_" class="st0" d="M36.7,13.3c2.6-0.5,5.1-1.8,7.1-3.6"/>
		<path id="Path-6-Copy_2_" class="st0" d="M13.9,14.2c3-3,6.3-4.5,9.7-4.5c0.6,0,1.2,0.1,1.7,0.2"/>
		<path id="Path-6-Copy-2_6_" class="st0" d="M43.8,13.3V9.7"/>
		<path id="Path-6-Copy-2_2_" class="st0" d="M13.9,33c0.9-0.9,1.8-1.7,2.8-2.3"/>
	</g>
</g>
<g id="Robotix_3_">
	<g id="Flaga_3_">
		<path class="st0" d="M18.9,48.4V17.2"/>
		<path id="Path-6-Copy_3_" class="st0" d="M18.9,17.2c3-3,6.3-4.5,9.7-4.5c5.2,0,5.2,3.9,10.4,3.9c3.6-0.1,7.1-1.4,9.7-3.9"/>
		<path id="Path-6-Copy-2_3_" class="st0" d="M18.9,36c3-3,6.3-4.5,9.7-4.5c5.2,0,5.2,3.9,10.4,3.9c3.6-0.1,7.1-1.4,9.7-3.9V12.7"/>
		<path class="st0" d="M18.9,27.1c3-3,6.3-4.5,9.7-4.5c5.2,0,5.2,3.9,10.4,3.9c3.6-0.1,7.1-1.4,9.7-3.9"/>
	</g>
</g>
<path class="st1" d="M18.8,17.4c0,0,5.5-6.2,11-4.5s4.9,4.2,10.5,3.7s8.3-3.8,8.3-3.8v18.7c0,0-5.3,4.8-10.1,4.1s-5.9-4.8-11.2-4.1
	s-8.8,4.9-8.8,4.9L18.8,17.4z"/>
<g id="Robotix">
	<g id="Flaga">
		<path class="st0" d="M18.9,48.4V17.2"/>
		<path id="Path-6-Copy" class="st0" d="M18.9,17.2c3-3,6.3-4.5,9.7-4.5c5.2,0,5.2,3.9,10.4,3.9c3.6-0.1,7.1-1.4,9.7-3.9"/>
		<path id="Path-6-Copy-2" class="st0" d="M18.9,36c3-3,6.3-4.5,9.7-4.5c5.2,0,5.2,3.9,10.4,3.9c3.6-0.1,7.1-1.4,9.7-3.9V12.7"/>
		<path class="st0" d="M18.9,27.1c3-3,6.3-4.5,9.7-4.5c5.2,0,5.2,3.9,10.4,3.9c3.6-0.1,7.1-1.4,9.7-3.9"/>
	</g>
</g>
</svg>
