<?xml version="1.0" encoding="utf-8"?>
<!-- Generator: Adobe Illustrator 23.0.2, SVG Export Plug-In . SVG Version: 6.00 Build 0)  -->
<svg version="1.1" id="Warstwa_1" xmlns="http://www.w3.org/2000/svg" xmlns:xlink="http://www.w3.org/1999/xlink" x="0px" y="0px"
	 viewBox="0 0 500 500" style="enable-background:new 0 0 500 500;" xml:space="preserve">
<style type="text/css">
	.st0{fill:none;stroke:#0052A5;stroke-width:20;}
	.st1{fill:none;stroke:#0052A5;stroke-width:30;stroke-linecap:round;}
	.st2{fill:#0052A5;}
</style>
<path class="st0" d="M251,381.8"/>
<path class="st1" d="M251,214.3"/>
<path class="st2" d="M251,447.5c-108.9,0-197.5-88.6-197.5-197.5c0-108.9,88.6-197.5,197.5-197.5c108.9,0,197.5,88.6,197.5,197.5
	C448.5,358.9,359.9,447.5,251,447.5z M251,82.5c-92.4,0-167.5,75.1-167.5,167.5c0,92.4,75.1,167.5,167.5,167.5
	c92.4,0,167.5-75.1,167.5-167.5C418.5,157.6,343.4,82.5,251,82.5z"/>
<path class="st2" d="M251,362.2c-10,0-18.1-8.1-18.1-18.1V241.9c0-10,8.1-18.1,18.1-18.1s18.1,8.1,18.1,18.1v102.3
	C269.1,354.1,261,362.2,251,362.2z"/>
<ellipse transform="matrix(0.9732 -0.2298 0.2298 0.9732 -31.3324 62.1037)" class="st2" cx="251" cy="165.6" rx="20.2" ry="20.2"/>
</svg>
